<?xml version="1.0" encoding="utf-8"?>
<!-- Generator: Adobe Illustrator 15.0.0, SVG Export Plug-In . SVG Version: 6.00 Build 0)  -->
<!DOCTYPE svg PUBLIC "-//W3C//DTD SVG 1.1//EN" "http://www.w3.org/Graphics/SVG/1.1/DTD/svg11.dtd">
<svg version="1.1" id="Layer_1" xmlns="http://www.w3.org/2000/svg" xmlns:xlink="http://www.w3.org/1999/xlink" x="0px" y="0px"
	 width="1190.551px" height="841.891px" viewBox="0 0 1190.551 841.891" enable-background="new 0 0 1190.551 841.891"
	 xml:space="preserve">
<path fill="none" stroke="#231F20" stroke-miterlimit="10" d="M374.237,381.698c-1.496-6.256,4.284-6.575,1.919-9.453
	c-3.575-4.352-2.605-8.899-2.238-10.073c0.748-2.392-8.135,2.055-13.871,5.521c0.646-3.424,1.025-5.543-0.041-5.521
	c-8.315,3.518-9.594,5.755-17.903,8.954c-1.739,0.67,1.492,2.953,0.313,5.683c-0.002,0.005-0.003,0.009-0.005,0.014
	c-1.142-2.675-2.813-3.884-4.986-4.338c1.834-2.872,3.181-5.274,2.435-7.595c-3.401-10.583-21.268-11.833-29.742-18.709
	c-13.24-10.741-33.64-10.075-38.617-10.075c-5.764,0-19.815,3.677-31.66,10.775c-0.012,0.007-0.022,0.015-0.035,0.021
	c-0.331,0.044-0.717,0.159-1.165,0.356c-8.709,3.824-62.362,15.111-90.632,22.906c-21.253,5.86-28.935,8.635-51.002,20.868
	c-17.637,9.776-38.912,32.937-38.912,32.937s-7.5,8.078,1.734,5.199c9.685-3.485,56.242-22.628,80.951-29.741
	c66.08-18.829,78.672-13.432,83.469-17.989c-1.439,4.897,4.753,13.125,7.435,12.712c6.237-0.959,11.125,5.049,16.071,3.838
	c7.835-1.918,3.358-16.789,17.269-17.27c4.404-0.151,10.301,0.948,13.272,4.638c2.398,2.978,3.936-0.933,8.954,0.98
	c8.829,3.364,15.458,7.731,20.547,12.165c-4.754,1.907-11.631,5.577-21.286,4.069c-7.189-1.123-6.741-20.328-16.575-19.609
	c-10.384,0.623-6.514,20.979-18.188,21.02c-30.382-0.84-91.905,8.843-113.052,13.96c-44.032,10.655-67.478,24.305-74.151,37.874
	c-3.882,7.617,1.042,7.013,1.042,7.013s89.099-14.025,100.932-15.465c20.256-2.462,134.958-15.51,148.75-22.307
	c3.223-1.587,3.129-9.534,2.073-16.293c5.873,7.699,7.75,12.821,10.285,8.414c6.097-10.603,12.91-4.263,12.952-12.666
	c0.008-1.812-0.523-3.022-1.33-3.962c0.467,0.105,0.914,0.209,1.33,0.318c3.718,0.975,4.678,0.424,4.677-1.664
	c10.273,4.542,18.236,11.534,22.746,11.738c1.459,0.066,1.686-0.774,1.222-2.139c2.552-0.098,2.65-4.292,7.494-4.292
	C383.351,406.624,377.4,394.917,374.237,381.698z"/>
<g>
	<path fill="none" stroke="#231F20" stroke-miterlimit="10" d="M1134.465,397.03c-0.54-0.158-4.076-0.64-8.873-2.719
		c-5.852-2.537-7.995-7.355-14.391-6.396c-2.697,0.405-0.96-4.029-4.639-4.579c-2.466-0.369-4.896,2.789-7.195,1.86
		c-2.693-1.089,1.76-10.224-4.477-7.923c-2.028,0.748-4.717,5.146-6.717,4.566c-1.959-0.57,0.96-6.867-1.758-6.867
		c-2.832,0-5.21,0.954-7.836,0.79c-3.438-0.214-1.547-6.29-4.797-5.276c-14.391,4.487-9.755-5.168-16.15-5.087
		c-2.414,0.03-4.929,1.485-6.964,2.779c-0.211-0.468-0.423-0.927-0.633-1.371c-1.08-2.279-4.471,0.865-3.719-1.409
		c1.68-5.067-1.063-6.384-2.537-6.13c-8.287,1.43-10.377,1.892-13.221,1.005c0.081-0.363,0.179-0.728,0.3-1.091
		c1.595-4.774,5.035-6.793,3.233-7.456c-5.792-2.138-6.082,0.111-7.104,0.831c-1.533,1.08-4.259,6.102-9.168,4.047
		c0.097-0.429,0.207-0.86,0.35-1.29c1.792-5.367,5.658-7.637,3.634-8.381c-6.511-2.402-6.835,0.125-7.986,0.935
		c-1.725,1.217-4.798,6.884-10.335,4.538c0.111-0.448,0.238-0.895,0.396-1.341c2.104-5.963,6.469-8.427,4.22-9.298
		c-7.231-2.81-7.642,0.009-8.942,0.893c-1.854,1.257-5.137,6.968-10.712,5.223c0.055-0.168,0.1-0.336,0.162-0.501
		c2.291-6.233,6.907-8.759,4.56-9.706c-7.555-3.047-8.024-0.095-9.402,0.817c-1.957,1.29-5.46,7.209-11.253,5.367
		c2.435-6.341,7.104-8.938,4.677-9.918c-7.92-3.196-8.413-0.101-9.857,0.855c-1.9,1.254-5.202,6.686-10.519,5.92
		c2.502-4.901,5.941-7.039,3.788-7.907c-7.915-3.194-8.407-0.101-9.852,0.854c-1.97,1.299-5.304,8.263-10.937,7.214
		c0.172-0.655,0.367-1.313,0.61-1.978c2.572-6.989,7.748-9.821,5.115-10.883c-8.472-3.419-8.999-0.105-10.545,0.915
		c-2.1,1.386-5.654,8.797-11.649,7.73c0.496-1.615,1.307-3.126,2.535-4.47c3.967-4.337,11.304-7.594,8.936-9.586
		c-4.791-4.033-9.722-1.279-11.526-0.376c-2.724,1.365-8.342,10.533-15.756,5.858c3.664-5.017,10.998-9.287,8.278-11.105
		c-5.501-3.683-10.362-0.219-12.154,0.939c-2.427,1.571-7.266,9.788-14.263,8.506c0.443-1.211,1.043-2.389,1.86-3.508
		c4.063-5.562,10.892-11.107,7.877-13.124c-6.098-4.083-11.487-0.242-13.473,1.041c-2.994,1.938-5.853,14.701-15.085,10.208
		c-0.375-0.181-0.696-0.115-0.965,0.105c0.41-0.963,0.931-1.899,1.586-2.797c4.243-5.808,12.729-10.75,9.581-12.856
		c-6.366-4.262-11.994-0.251-14.066,1.089c-3.129,2.023-6.112,15.352-15.754,10.658c-0.454-0.22-0.834-0.091-1.14,0.238
		c0.297-0.582,0.623-1.159,1.012-1.72c4.28-6.191,13.023-11.589,9.675-13.708c-6.773-4.285-12.553,0.061-14.687,1.52
		c-3.218,2.201-5.977,16.224-16.19,11.576c-0.182-0.083-0.347-0.101-0.504-0.089c0.344-0.75,0.729-1.495,1.208-2.216
		c4.492-6.75,13.806-12.732,10.155-14.95c-7.376-4.485-13.518,0.31-15.784,1.92c-3.422,2.43-6.124,17.572-17.199,12.783
		c0.078-0.264,0.145-0.529,0.232-0.794c2.298-6.921,12.321-13.532,8.295-15.668c-8.139-4.319-15.332,0.846-16.668,4.316
		c-1.498,3.888-0.904,13.431-9.539,11.992c-2.588-0.432-2.33,5.58,1.129,8.118c2.229,1.636-0.81,9.792-4.007,8.523
		c-0.313-0.066-0.558,0.357-0.729,1.087c-1.484-5.768-1.876-12.043,0.223-18.368c2.299-6.921,12.323-13.532,8.296-15.668
		c-8.138-4.319-15.332,0.846-16.667,4.316c-1.498,3.888-0.904,13.431-9.539,11.992c-2.589-0.432-2.331,5.58,1.129,8.118
		c2.229,1.636-0.81,9.792-4.007,8.523c-0.042-0.009-0.081-0.001-0.118,0.006c-1.26-5.465-1.48-11.355,0.489-17.287
		c2.298-6.921,12.321-13.532,8.295-15.668c-8.137-4.319-15.333,0.846-16.668,4.316c-1.496,3.888-0.903,13.431-9.539,11.992
		c-2.588-0.432-2.33,5.58,1.13,8.118c2.229,1.636-0.809,9.792-4.008,8.523c-0.049-0.011-0.094-0.005-0.139,0.008
		c-1.124-5.417-1.252-11.297,0.737-17.289c2.298-6.921,12.323-13.532,8.296-15.668c-8.139-4.319-15.334,0.846-16.669,4.316
		c-1.496,3.888-0.903,13.431-9.538,11.992c-2.588-0.432-2.33,5.58,1.13,8.118c2.228,1.636-0.811,9.792-4.008,8.523
		c-0.45-0.097-0.756,0.805-0.909,2.184c-1.617-6.063-2.122-12.735,0.111-19.464c2.298-6.921,12.323-13.532,8.296-15.668
		c-8.139-4.319-15.333,0.846-16.669,4.316c-1.496,3.888-0.903,13.431-9.538,11.992c-2.589-0.432-2.33,5.58,1.13,8.118
		c2.228,1.636-0.811,9.792-4.008,8.523c-0.296-0.063-0.528,0.312-0.698,0.964c-1.326-5.655-1.603-11.873,0.513-18.245
		c2.298-6.921,12.321-13.532,8.295-15.668c-8.137-4.319-15.332,0.846-16.668,4.316c-1.496,3.888-0.902,13.431-9.537,11.992
		c-2.59-0.432-2.332,5.58,1.129,8.118c2.229,1.636,2.01,4.983-1.188,3.714c-0.274-0.059-3.316,5.063-3.483,5.631
		c-1.095-5.618-1.204-11.784,0.894-18.103c2.298-6.921,12.323-13.532,8.296-15.668c-8.139-4.319-15.334,0.846-16.669,4.316
		c-1.496,3.888-0.903,13.431-9.538,11.992c-2.587-0.432-2.33,5.58,1.13,8.118c2.228,1.636-0.811,9.792-4.008,8.523
		c-0.314-0.066-0.558,0.357-0.729,1.088c-1.142-5.689-1.286-11.95,0.845-18.369c2.298-6.921,12.322-13.532,8.295-15.668
		c-8.139-4.319-15.332,0.846-16.667,4.316c-1.499,3.888-0.905,13.431-9.54,11.992c-2.588-0.432-2.33,5.58,1.129,8.118
		c2.229,1.636-0.809,9.792-4.007,8.523c-0.619-0.133-0.967,1.626-1.019,3.927c-1.398-5.828-1.684-12.523,0.802-19.769
		c2.199-6.411,12.33-14.103,8.59-16.089c-7.563-4.014-15.129,2.314-16.37,5.538c-1.391,3.613-2.718,15.987-10.971,11.902h-0.002
		c1.885-5.787,4.073-11.542,4.498-13.664c1.118-5.597-15.512-5.756-15.973,2.852c-0.571,10.61-3.83,17.437-6.715,22.159
		c-1.927,0.659-3.726,1.374-3.874,0.413c-1.049-6.718,4.804-20.273,4.974-21.56c0.831-6.303-17.059-3.013-18.769,2.761
		c-1.037,3.498,1.4,19.345-0.894,19.468c-0.026-0.046-0.048-0.085-0.075-0.132c-0.331-0.554-1-0.672-1.816-0.577
		c-2.221-0.598-4.708-0.056-6.223,1.024c-0.959-6.361,4.545-19.114,4.706-20.328c0.785-5.954-16.115-2.845-17.733,2.61
		c-1.029,3.479,1.581,19.9-1.221,18.292c-2.703-1.549-6.463-0.68-7.958,0.992c-0.652-6.597,3.871-18.493,3.975-19.661
		c0.532-6.006-16.283-2.162-17.669,3.378c-0.884,3.533,2.438,19.888-0.439,18.397c-2.881-1.493-6.797-0.325-8.094,1.534
		c-0.737-6.208,3.647-17.73,3.747-18.848c0.503-5.695-15.44-2.05-16.754,3.203c-0.838,3.348,2.313,18.854-0.417,17.442
		c-3.084-1.598-7.416,0.019-8.016,2.167c-1.106,0.42-1.987,0.658-2.107,0.056c-1.108-5.542,3.269-17.011,3.365-18.087
		c0.466-5.266-14.277-1.895-15.492,2.962c-0.775,3.099,2.139,17.437-0.386,16.13c-2.449-1.268-5.746-0.344-6.982,1.198
		c-0.999,0.363-1.771,0.534-1.882-0.027c-1.108-5.542,3.269-17.01,3.365-18.086c0.467-5.266-14.277-1.895-15.491,2.962
		c-0.776,3.098,2.138,17.438-0.386,16.129c-4.048-2.097-10.424,1.792-5.938,4.578c-1.373,0.609-2.618,1.206-2.789,0.506
		c-1.241-5.066,2.34-15.816,2.386-16.812c0.221-4.875-13.242-1.182-14.171,3.344c-0.591,2.889,2.664,15.999,0.284,14.892
		c-3.341-1.554-8.148,1.195-6.448,3.508c-1.168,0.52-2.198,0.983-2.345,0.382c-1.116-4.553,2.104-14.211,2.145-15.105
		c0.199-4.38-11.897-1.061-12.733,3.006c-0.531,2.594,2.393,14.372,0.256,13.378c-3.084-1.434-7.554,1.213-5.649,3.321
		c-0.683,0.242-1.206,0.344-1.283-0.045c-0.787-3.972,2.363-12.18,2.434-12.95c0.34-3.772-10.224-1.375-11.102,2.101
		c-0.559,2.218,1.51,12.492-0.296,11.554c-3.392-1.766-9.084,2.34-1.901,4.2c0.688,0.178,1.86,0.648,1.537,2.402
		c-0.186-0.526-0.57-1.206-1.225-2.085c-0.85-1.14-4.201,1.731-4.462,0.739c-0.919-3.489,1.432-10.966,1.452-11.653
		c0.095-3.375-9.172-0.661-9.759,2.48c-0.376,2.003,2.029,11.03,0.371,10.293c-0.594-0.263-1.25-0.333-1.878-0.263
		c-0.12-1.041-0.208-2.213-0.221-3.524c-0.039-3.701-5.754-6.112-5.813-1.158c-0.062,4.86-2.863,8.535-4.286,10.849
		c-0.141-1.313-0.256-2.926-0.184-4.847c0.13-3.47-5.117-5.988-5.396-1.347c-0.106,1.766-0.594,3.347-1.233,4.744
		c-0.008-0.22-0.017-0.442-0.019-0.674c-0.024-2.381-3.701-3.932-3.74-0.745c-0.059,4.86-4.396,7.892-3.007,8.624
		c0.646,0.341,1.611-0.077,2.717-0.583c-0.141,0.437-0.077,0.768,0.299,0.988c0.215,0.126,0.462,0.186,0.729,0.206
		c-2.059,5.406-2.192,21.088-1.499,37.172c-1.471,5.249-1.73,9.278-1.73,10.447c0,0.407,0.893,0.851,2.376,1.344
		c1.033,15.67,2.621,29.323,3.671,31.117c0,0,7.171,19.093,8.395,15.45c-0.799-3.038-6.34-19.21-7.747-45.329
		c2.336,0.617,5.067,1.306,7.851,2.089c0.218,3.757,0.455,7.491,0.706,11.128c-0.826-0.13-1.581-0.144-2.25,0.092
		c-4.078,1.439,2.258,16.963,1.439,21.028c-0.167,0.83,0.829,1.16,2.633,1.071c0.912,9.214,1.823,15.677,2.524,16.877
		c0,0,9.524,15.882,6.835,4.558c-1.106-4.659-2.27-12.719-3.336-22.496c1.096-0.279,2.269-0.612,3.495-0.988
		c0.814,11.28,1.719,19.056,2.486,19.354c3.232,1.252,2.824-3.081,3.352-1.185c4.757,17.068,16.063,18.291,12.371,14.459
		c-4.082-4.233-6.708-18.714-8.318-36.243c1.15-0.483,2.308-0.992,3.462-1.525c0.669,1.542,1.429,3.055,2.273,4.496
		c0.443,10.336,0.834,17.482,1.006,18.22c1.578,6.748,3.135,4.929,4.317,9.216c4.318,15.65,13.984,20.917,12.894,15.65
		c-0.266-1.278-3.324-8.247-5.975-24.067c3.916,5.764,5.861,8.903,8.711,8.765c3.227,7.85,8.932,19.223,15.071,19.73
		c0.608,0.022,1.152-0.051,1.656-0.188c13.621,14.291,61.465,34.172,67.542,32.52c0.769,0.018,1.45-0.758,2.033-2.027
		c3.239,1.825,9.179,3.978,8.641,1.54c-1.2-5.441,5.138-8.956,2.398-9.297c-5.146-0.641-5.083,0.838-8.971-1.982
		c0.07-0.777,0.125-1.559,0.163-2.332c3.326,0.994,10.942,1.698,9.637-0.692c-2.67-4.892,2.436-10.034-0.291-9.596
		c-5.48,0.877-4.551,2.422-10.197,0.212c-0.313-0.739-0.708-1.172-1.193-1.186c-29.644-2.469-40.589-5.956-54.215-19.947
		c0.072-0.009,0.135-0.021,0.202-0.031c16.13,9.448,50.125,18.595,54.489,16.811c0.05-0.006,0.095-0.028,0.141-0.042
		c0.104,0.383,0.241,0.67,0.429,0.793c1.75,1.134,13.173,1.975,11.387-0.864c-2.427-3.852,0.085-8.158-0.049-9.553
		c0.222,0.396,0.486,0.601,0.785,0.52c12.94-3.488,17.691,1.719,19.396-1.029c1.17-1.887,2.91-9.93,1.829-10.376
		c-4.622-1.896-10.95,4.175-18.794-0.098c-0.56-0.306-1.051-0.385-1.481-0.298c1.045-24.881-2.696-114.263-2.876-134.94
		c0.28-0.033,0.581-0.114,0.919-0.263c6.155-2.724-7.846-4.889-7.618-12.394c0.037-1.221,2.738-0.636,4.885-0.745
		c0.599,0.878,0.758,2.329-0.378,4.786c-1.679,3.478,4.55,2.905,9.421,7.342c0.636,0.785,1.627,0.944,2.799,0.766
		c-1.578,16,5.132,108.009,5.502,111.759c0.945,9.578,2.237,5.497,3.824,8.854c1.535,3.249,3.796,15.229,5.501,11.013
		c3.156,0-3.023-112.111-3.406-133.599c0.672,0.195,1.339,0.268,2.261-0.14c6.493-2.874-8.275-5.157-8.035-13.072
		c0.035-1.138,2.092-1.799,4.345-0.772c0.49,0.907,0.521,2.336-0.658,4.625c-1.819,3.391,4.405,3.087,9.064,7.711
		c0.984,1.331,2.999,1.013,5.211,0.3c2.03,26.457,0.904,124.46,8.093,121.477c2.726,0.066,1.599-10.593,2.726-13.235
		c1.165-2.733,1.679-10.125,2.143-17.809c0.186-3.077-2.118-81.387-4.703-91.602c0.953,0.368,1.719,0.731,2.992,0.23
		c6.585-2.583-8.017-5.486-7.439-13.354c0.04-0.54,0.567-0.719,1.33-0.749c0.294,0.102,0.597,0.206,0.923,0.303
		c1.402,0.424,3.999,1.642,1.513,6.47c-0.203,1.77,5.384,1.72,9.594,8.162c1.214,1.642,3.914,0.914,6.695-0.087
		c0.201,18.592,2.172,95.254,5.539,103.732c3.556,8.956,5.624,3.095,6.428-1.353c0.806-4.455-1.527-86.404-2.422-102.721
		c0.284-0.006,0.588-0.053,0.928-0.162c1.08,0.969,2.041,1.511,2.783,1.313c1.236-0.387,2.363-0.688,3.414-0.927
		c1.208,2.114,3.378,5.63,4.514,10.703c4.144,18.488-1.547,98.018,1.844,93.147c5.179-7.44,3.26-15.151,5.179-22.452
		c1.644-6.259,3.18-62.547,0.265-80.188c1.985,1.391,3.179,3.055,5.496,3.175c0.314,0.641,0.604,1.178,0.865,1.562
		c1.485,1.438,13.006,2.048,14.639,0.717c0.96-1.437-2.225-5.79-5.21-12.189c5.146-0.498,10.922,9.125,13.048,12.241
		c1.598,1.547,11.192,1.432,12.951,0c0.979-1.466-1.672-5.935-4.396-12.227c4.896,0.615,10.121,9.297,12.118,12.227
		c1.599,1.547,11.193,1.432,12.953,0c0.977-1.464-1.666-5.925-4.389-12.207c4.859,0.743,10.016,9.3,11.996,12.207
		c1.598,1.547,12.758,1.434,14.518,0.002c0.97-1.455-1.925-5.867-4.96-12.083c4.686,1.288,9.515,9.291,11.415,12.081
		c1.599,1.547,13.427,2.549,15.187,1.118c1.009-1.515-2.302-6.461-5.614-13.328c4.864,0.721,10.031,9.3,12.014,12.21
		c1.599,1.547,12.759,1.753,14.518,0.321c0.967-1.446-1.894-5.88-4.908-12.111c4.411,1.921,8.793,9.164,10.582,11.79
		c1.07,2.56,14.182,2.549,15.941,1.118c0.99-1.484-2.316-6.256-5.725-12.908c4.656,1.79,9.726,8.096,11.481,10.672
		c1.071,2.56,12.903,3.667,14.662,2.236c1.004-1.507-2.423-6.414-5.887-13.23c4.917,1.145,10.631,8.225,12.52,10.994
		c1.071,2.56,12.902,3.667,14.662,2.236c1.086-1.629-3.003-7.225-6.723-14.914c4.797,1.654,10.664,11.289,12.32,14.051
		c0.862,2.454,16.603,2.738,18.328,1.496c1.001-1.327-3.277-6.83-7.475-13.959c3.961,2.903,8.104,9.987,9.395,12.234
		c0.76,2.291,15.367,2.817,16.99,1.692c0.978-1.249-3.146-6.684-7.016-13.635c4.021,2.234,8.43,10.236,9.719,12.619
		c0.67,2.207,14.609,3.07,16.188,2.033c0.864-1.046-2.106-5.41-5.272-11.158c3.505,2.82,7.038,9.243,8.15,11.297
		c0.641,2.113,13.99,2.939,15.503,1.947c0.752-0.913-1.361-4.348-3.84-8.986c2.898,2.776,5.671,7.815,6.594,9.521
		c0.578,1.906,12.62,2.652,13.985,1.756c0.834-1.012-2.472-5.607-5.524-11.449c3.126,2.048,6.071,9.14,6.92,11.225
		c0.345,1.852,11.593,3.801,12.97,3.102c0.694-0.676-0.76-3.669-2.508-7.712c2.663,2.295,5.304,6.978,6.156,8.52
		c0.517,1.648,10.98,2.201,12.157,1.413c0.692-0.856-1.161-3.698-3.036-7.794c2.795,1.645,5.846,7.059,6.749,8.693
		c1.849,3.644,13.461,4.258,14.561,3.519c0.744-0.919-2.47-4.853-5.234-10.198c3.027,2.114,6.46,6.399,7.256,7.836
		c1.85,3.646,13.47,4.258,14.57,3.521c0.655-0.807-1.743-3.937-4.211-8.31c2.674,2.14,5.455,5.647,6.146,6.897
		c1.767,3.478,12.851,4.063,13.9,3.359c0.56-0.693-1.23-3.178-3.307-6.698c2.358,2.017,4.664,4.875,5.281,5.958
		c1.724,3.29,12.285,3.709,13.278,3.025c0.556-0.705-1.428-3.296-3.598-6.943c2.38,1.737,4.94,4.767,5.576,5.839
		c1.594,2.917,11.046,3.13,11.923,2.502c0.455-0.597-1.1-2.632-2.935-5.53c1.886,1.568,3.733,3.778,4.234,4.624
		c1.117,2.046,6.574,2.593,9.217,2.459c4.288,2.915,12.595,1.134,19.287,3.891c0.575,0.236,0.703-0.412,0.522-1.619
		c1.487,0.356,3.957,0.584,7.635,1.668c3.053,0.9,2.718,3.136,10.073,3.136c3.458,0,6.556,3.612,12.313,2.652
		c3.67-0.612,5.276,3.838,10.873,2.878c3.518,2.079,7.293,1.498,12.633,2.559c9.942,1.978,18.192,4.791,20.217,5.556
		C1135.176,402.872,1138.862,398.308,1134.465,397.03z M419.368,363.622c-0.433,1.18,0.763,1.564,2.426,2.275
		c-0.139,1.073-0.247,2.558-0.327,4.413c-0.623-1.232-5.629-2.473-5.731-5.903C415.711,363.523,418.143,364.096,419.368,363.622z
		 M406.352,367.376c-0.012-0.539-0.479-0.887-1.197-1.085c-0.02-0.187-0.047-0.386-0.083-0.611
		C405.646,365.833,406.374,366.223,406.352,367.376z M400.631,374.843c0.276-3.384,4.335-3.778,5.441-6.141
		c-0.03,0.09-0.045,0.164-0.082,0.258c-0.287,0.699-0.043,1.087,0.507,1.397c-0.466,2.511-0.775,6.506-0.958,11.497
		c-1.936,1.089-3.729,2.254-5.372,3.486C400.234,381.414,400.385,377.868,400.631,374.843z M387.759,399.332
		c0.364-6.729,1.022-13.853,2.079-21.371c0.446-3.169,4.472-3.36,4.038-6.047c0.556-0.019,0.639-0.514,0.55-1.492
		c0.273,0.017,0.569-0.02,0.883-0.089c-0.823,3.384-1.117,10.816-1.048,20.256C391.594,393.412,389.466,396.386,387.759,399.332z
		 M402.279,438.626c-0.269-3.432-0.52-6.926-0.749-10.437c1.638,0.571,3.193,1.181,4.592,1.837c0.106,2.639,0.221,5.252,0.344,7.816
		C405.018,438.513,403.615,438.691,402.279,438.626z M418.26,376.674c-0.87,0.239-1.704,0.502-2.535,0.77
		c0.12-2.393,0.259-4.316,0.413-5.643c2.671-1.201,3.059,0.396,4.525-0.36c0.418-0.218,0.665-0.418,0.784-0.612
		c-0.061,1.489-0.102,3.187-0.13,5.067C420.308,376.139,419.295,376.388,418.26,376.674z M433.349,373.917
		c0.161-2.22,0.329-4.461,0.515-6.752c0.586,0.201,1.072,0.391,1.84,0.053c4.08-1.798-5.19-3.248-5.031-8.217
		c0.044-1.379,5.203,0.723,4.947-1.903c0.555,0.593,0.815,1.662,0.002,3.646c-0.959,2.225,2.261,2.08,5.523,3.968
		c-0.14,2.122-0.184,5.199-0.155,8.967C438.545,373.618,436.001,373.688,433.349,373.917z M452.692,375.037
		c0.029-4.968,0.173-8.685,0.476-10.538c0.436,0.084,0.88,0.076,1.459-0.209c4.627-2.29-6.172-3.488-6.244-9.246
		c-0.021-1.688,6.78,0.831,5.482-3.031c1.035,0.443,2.076,1.55,0.819,4.612c-1.237,2.872,3.779,2.19,7.873,5.612
		c0.259,0.294,0.584,0.463,0.952,0.544c-0.141,3.657-0.097,9.169,0.075,15.788C460.347,377.128,456.711,375.907,452.692,375.037z
		 M467.064,472.454c-1.462-1.631-2.632-2.872-3.174-3.438c1.584-0.81,3.139-1.121,4.619-1.159c0.046,0.417,0.083,0.695,0.111,0.813
		c0.144,0.597,0.352,1.188,0.61,1.759l-1.614,1.238C467.353,471.87,467.174,472.145,467.064,472.454z M486.035,471.797l-5.496-7.161
		c-0.42-0.549-1.004-0.874-1.584-0.957c-0.226-1.04-0.528-2.252-0.907-3.643c-0.504-11.029-1.364-29.868-2.022-48.274
		c4.536-7.002,7.634-13.292,6.997-15.932c-0.534-2.21-3.141-6.093-7.752-9.999c-0.25-12.487-0.205-22.205,0.406-25.191
		c0.054-0.023,0.103-0.04,0.159-0.067c5.151-2.548-6.87-3.881-6.95-10.29c-0.021-1.618,5.583,0.232,6.224-1.962
		c-0.024,0.685-0.233,1.539-0.732,2.62c-1.473,3.049,3.988,2.547,8.26,6.438c0.825,1.021,2.338,0.831,4.035,0.263
		c-0.91,21.823,2.568,115.125,3.074,117.757c1.185,6.185,8.242,9.135,7.98,6.185c-0.249-2.8-2.571-111.386-1.676-125.134
		c0.313-0.012,0.648-0.08,1.039-0.253c5.692-2.521-7.255-4.521-7.044-11.46c0.039-1.307,3.378-0.379,5.403-0.795
		c0.942,0.626,1.642,1.932,0.308,4.822c-1.473,3.05,3.988,2.546,8.26,6.438c0.799,0.989,2.244,0.845,3.875,0.318
		c-0.98,23.858,2.797,125.131,3.345,127.994c0.258,1.345,0.777,2.541,1.431,3.582c-12.458-0.729-19.855-3.637-28.811-10.744
		l2.041-1.565C486.742,474.139,486.804,472.798,486.035,471.797z M542.201,498.194c-5.009,1.128-4.742,2.471-8.807,1.416
		c-0.001-0.839-0.027-1.693-0.072-2.544c3.649,0.813,8.649,1.176,7.669-0.761c-1.014-1.996-0.671-3.963-0.125-5.568
		c0.479,1.495,0.968,2.766,1.451,3.449c0.011,1.612,0.221,3.125,0.584,4.048C542.76,498.137,542.539,498.119,542.201,498.194z
		 M538.165,482.03c0.502,1.098,1.071,3.122,1.672,5.236c-4.129,0.646-3.867,1.722-9.033-0.505c-0.021,0.077-0.05,0.194-0.083,0.332
		c-0.097-0.032-0.194-0.046-0.294-0.036c-3.896,0.153-7.411,0.239-10.62,0.234c-0.552-18.738-2.607-119.383-1.714-133.131
		c0.12-0.038,0.243-0.08,0.374-0.14c5.693-2.519-7.254-4.52-7.044-11.46c0.048-1.606,5.077,0.162,6.528-1.338
		c1.025,0.674,1.797,2.084,0.347,5.225c-1.592,3.298,4.313,2.754,8.932,6.962c0.578,0.714,1.466,0.877,2.517,0.74
		c-1.768,17.854,4.125,114.463,4.468,118.425C535.098,482.762,536.522,478.444,538.165,482.03z M621.711,329.297
		c-0.3-0.064-0.524,0.284-0.676,0.888c-0.326-0.345-0.674-0.708-1.057-1.103c-1.054-1.086-0.542-4.551,0.569-8.723
		c0.073,0.024,0.132,0.058,0.21,0.077C629.092,322.515,624.682,330.475,621.711,329.297z M807.249,329.105
		c-0.763-3.303-1.137-6.76-0.886-10.291C814.416,320.765,811.861,330.505,807.249,329.105z M829.129,330.471
		c-0.021-0.006-0.044-0.004-0.065-0.006c-1.161-3.629-1.741-7.309-1.265-10.822c0.133,0.567,0.351,1.033,0.673,1.26
		C835.928,322.841,833.39,331.852,829.129,330.471z M850.101,331.869c-0.274-0.088-0.481,0.163-0.619,0.637
		c-1.434-4.568-1.904-9.224-0.356-13.441c-0.282,1.397-0.122,3.123,0.584,3.648C856.784,324.75,854.139,333.294,850.101,331.869z
		 M869.754,335.051c-0.015-0.006-0.025,0.006-0.039,0.003c-1.129-3.655-1.659-7.369-1.019-10.843
		c0.022,0.908,0.238,1.739,0.683,2.068C876.154,328.232,873.621,336.414,869.754,335.051z M889.811,339.859
		c-0.985-3.13-1.542-6.349-1.283-9.442C893.918,332.634,892.624,339.992,889.811,339.859z M907.532,341.285
		c-0.46-0.207-0.809,0.861-0.92,2.339c-1.103-3.182-1.736-6.453-1.383-9.537C910.201,334.093,910.684,342.802,907.532,341.285z
		 M923.713,347.968c-0.456-1.722-0.792-3.468-0.931-5.185C924.403,344.409,924.802,347.321,923.713,347.968z M939.684,351.567
		c-0.354-1.653-0.571-3.385-0.574-5.182C941.052,348.043,941.384,351.662,939.684,351.567z M955.263,352.853
		c-0.532-2.581-0.625-5.266-0.004-7.952C957.307,347.197,957.912,352.192,955.263,352.853z M972.267,355.712
		c-0.736-2.629-1.079-5.399-0.7-8.19C974.033,349.24,975.048,354.997,972.267,355.712z M988.666,359.115
		c-0.754-2.452-1.168-5.042-0.946-7.664C989.969,353.055,990.972,358.143,988.666,359.115z M1004.294,362.876
		c-0.812-2.316-1.329-4.781-1.251-7.295C1005.651,356.345,1007.109,362.354,1004.294,362.876z M1018.718,365.851
		c-0.745-2.022-1.238-4.178-1.224-6.384C1019.69,360.242,1020.91,365.148,1018.718,365.851z"/>
	<path fill="none" stroke="#231F20" stroke-miterlimit="10" d="M562.802,532.747c-3.745-2.976-10.826,1.739-16.948-4.377
		c-3.903-3.9-6.931,11.209-4.785,11.106c12.472-0.589,15.59,5.767,17.749,3.369C560.297,541.2,563.68,533.443,562.802,532.747z"/>
	<path fill="none" stroke="#231F20" stroke-miterlimit="10" d="M581.244,537.041c-0.479-2.171-9.893,2.325-14.616-1.882
		c-2.597-2.313-6.655,9.284-4.932,9.124c9.645-0.896,18.959,3.826,18.109,1.2C578.486,541.405,581.537,538.371,581.244,537.041z"/>
	<path fill="none" stroke="#231F20" stroke-miterlimit="10" d="M598.255,538.375c-3.819,0.512-10.774,0.392-13.653-1.334
		c-2.878-1.726-4.953,9.442-3.338,9.247c12.573-1.524,15.091,2.313,15.835,0.514C597.914,543.386,600.038,538.136,598.255,538.375z"
		/>
	<path fill="none" stroke="#231F20" stroke-miterlimit="10" d="M614.822,540.394c-2.158-0.078-10.416-0.66-12.815-1.14
		c-1.837-0.367-2.729,4.892-3.059,6.229c-0.33,1.336,16.062-1.603,17.555-2.097C619.14,542.513,619.74,540.571,614.822,540.394z"/>
	<path fill="none" stroke="#231F20" stroke-miterlimit="10" d="M582.819,488.023c-0.911-1.94-7.897,4.044-12.896,1.002
		c-2.747-1.669-3.53,9.941-2.099,9.464c8.016-2.661,17.047-0.009,15.716-2.305C581.474,492.621,583.377,489.207,582.819,488.023z"/>
	<path fill="none" stroke="#231F20" stroke-miterlimit="10" d="M599.88,485.519c-3.643,1.319-10.52,2.74-13.754,1.762
		c-3.237-0.979-2.686,9.916-1.14,9.377c12.024-4.195,15.398-1.164,15.711-3.01C600.708,490.277,601.581,484.902,599.88,485.519z"/>
	<path fill="none" stroke="#231F20" stroke-miterlimit="10" d="M616.664,483.755c-2.141,0.403-10.411,1.677-12.885,1.757
		c-1.896,0.063-1.551,5.175-1.567,6.495c-0.015,1.325,15.448-5.032,16.801-5.827C621.406,484.784,621.549,482.834,616.664,483.755z"
		/>
	<path fill="none" stroke="#231F20" stroke-miterlimit="10" d="M544.209,524.148c12.222-2.548,16.303,3.238,18.056,0.529
		c1.202-1.856,3.321-10.049,2.344-10.6c-4.167-2.347-10.416,3.423-17.426-1.652C542.716,509.188,542.106,524.587,544.209,524.148z"
		/>
	<path fill="none" stroke="#231F20" stroke-miterlimit="10" d="M646.373,517.283c-0.551-1.792-7.777,2.677-11.896-0.518
		c-2.268-1.759-4.644,8.298-3.27,8.039c7.688-1.459,15.536,1.838,14.653-0.313C644.489,521.155,646.711,518.381,646.373,517.283z"/>
	<path fill="none" stroke="#231F20" stroke-miterlimit="10" d="M629.176,516.765c-3.693,1.106-10.58,2.084-13.693,0.834
		c-3.114-1.25-3.404,10.104-1.84,9.657c12.175-3.488,15.267-0.096,15.718-1.988C629.627,521.769,630.899,516.247,629.176,516.765z"
		/>
	<path fill="none" stroke="#231F20" stroke-miterlimit="10" d="M658.518,518.077c-1.621-0.001-7.827-0.32-9.649-0.747
		c-1.394-0.329-1.771,5.4-1.941,6.86c-0.176,1.46,11.921-2.345,13.011-2.936C661.86,520.21,662.202,518.081,658.518,518.077z"/>
	<path fill="none" stroke="#231F20" stroke-miterlimit="10" d="M593.354,516.975c-2.875-2.636-3.307,7.235-2.555,9.649
		c0.75,2.412,9.994-1.38,17.491,0.729c3.044,0.858,4.559-10.848,2.817-10.794C605.363,516.73,596.227,519.612,593.354,516.975z"/>
	<path fill="none" stroke="#231F20" stroke-miterlimit="10" d="M564.861,526.502c0.238,2.873,9.668-0.544,20.623,2.094
		c2.511,0.606,4.989-11.864,3.903-12.813c-1.724-1.507-11.573,5.579-21.412-1.144C566.055,513.558,564.622,523.627,564.861,526.502z
		"/>
	<path fill="none" stroke="#231F20" stroke-miterlimit="10" d="M545.861,511.897c12.568-3.452,17.197,2.311,18.847-0.624
		c1.131-2.013,2.806-10.688,1.753-11.196c-4.495-2.176-10.63,4.243-18.264-0.586C543.329,496.408,543.699,512.49,545.861,511.897z"
		/>
	<path fill="none" stroke="#231F20" stroke-miterlimit="10" d="M651.859,498.089c-0.691-1.832-7.928,3.296-12.428,0.234
		c-2.477-1.685-4.297,8.949-2.882,8.59c7.915-2.021,16.305,0.901,15.247-1.28C650.148,502.246,652.284,499.208,651.859,498.089z"/>
	<path fill="none" stroke="#231F20" stroke-miterlimit="10" d="M618.407,510.611c12.457-4.426,15.9-1.092,16.248-3.096
		c0.049-3.663,1.015-9.499-0.747-8.85c-3.774,1.395-10.888,2.861-14.212,1.764C616.369,499.332,616.807,511.179,618.407,510.611z"/>
	<path fill="none" stroke="#231F20" stroke-miterlimit="10" d="M664.565,498.124c-1.689,0.103-8.176,0.177-10.102-0.151
		c-1.474-0.25-1.492,5.744-1.576,7.275c-0.087,1.535,12.267-3.218,13.364-3.905C668.185,500.128,668.403,497.887,664.565,498.124z"
		/>
	<path fill="none" stroke="#231F20" stroke-miterlimit="10" d="M596.595,501.222c-3.167-2.562-2.974,7.754-2.032,10.218
		c0.938,2.466,10.326-2.089,18.274-0.379c3.229,0.695,4.044-11.601,2.232-11.431C609.096,500.184,599.767,503.781,596.595,501.222z"
		/>
	<path fill="none" stroke="#231F20" stroke-miterlimit="10" d="M570,500.44c-2.068-1-2.905,9.582-2.469,12.563
		c0.434,2.979,10.036-1.197,21.622,0.838c2.657,0.467,4.426-12.686,3.231-13.604C590.49,498.779,580.689,506.803,570,500.44z"/>
</g>
</svg>
