<?xml version="1.0" encoding="utf-8"?>
<!-- Generator: Adobe Illustrator 16.0.0, SVG Export Plug-In . SVG Version: 6.00 Build 0)  -->
<!DOCTYPE svg PUBLIC "-//W3C//DTD SVG 1.1 Tiny//EN" "http://www.w3.org/Graphics/SVG/1.1/DTD/svg11-tiny.dtd">
<svg version="1.1" baseProfile="tiny" id="Layer_1" xmlns="http://www.w3.org/2000/svg" xmlns:xlink="http://www.w3.org/1999/xlink"
	 x="0px" y="0px" width="142.841px" height="158.119px" viewBox="0 0 142.841 158.119" xml:space="preserve">
<g>
	<g>
		<path fill="#010101" d="M71.322,158.119c-0.014,0-0.027,0-0.04,0c-0.241-0.014-0.462-0.143-0.592-0.346l-13.986-21.869
			l-10.136,9.297c-0.295,0.271-0.752,0.262-1.035-0.021l-12.281-12.203c-0.036-0.036-0.068-0.075-0.097-0.117l-5.174-7.79
			l-4.31,1.63c-0.207,0.079-0.438,0.061-0.63-0.046c-0.193-0.107-0.329-0.294-0.372-0.51l-2.354-11.947l-2.517,1.197
			c-0.204,0.099-0.444,0.097-0.648-0.002c-0.205-0.099-0.354-0.285-0.404-0.507l-3.386-14.726l-4.652,2.334
			c-0.24,0.121-0.529,0.103-0.754-0.047c-0.225-0.151-0.351-0.411-0.33-0.681l2.677-34.932c0.015-0.185,0.097-0.358,0.231-0.486
			l8.292-7.881L18.21,48.456c-0.009-0.147,0.026-0.294,0.1-0.422l3.292-5.685l-2.928-2.586c-0.167-0.148-0.26-0.363-0.253-0.587
			c0.008-0.224,0.114-0.433,0.291-0.569l4.555-3.521l-6.034-2.084c-0.156-0.055-0.291-0.159-0.382-0.298L4.781,14.286
			c-0.033-0.05-0.06-0.104-0.08-0.16L0.043,1.002c-0.081-0.229-0.046-0.484,0.095-0.684S0.507,0.001,0.75,0.001h34.089
			c0.304,0,0.578,0.184,0.693,0.465l5.174,12.599l10.58,4.204h37.005l13.245-4.225l4.313-12.537
			c0.104-0.303,0.389-0.506,0.709-0.506h35.533c0.243,0,0.472,0.118,0.612,0.317s0.176,0.454,0.095,0.684l-4.658,13.123
			c-0.021,0.057-0.047,0.11-0.08,0.16l-12.068,18.419c-0.093,0.143-0.232,0.249-0.396,0.302l-5.073,1.648l0.6,4.445
			c0.012,0.09,0.008,0.18-0.012,0.268l-0.611,2.677l4.005,5.946c0.101,0.148,0.144,0.328,0.123,0.507l-1.182,10.022l8.751,9.653
			c0.108,0.12,0.175,0.271,0.19,0.432l3.199,32.978c0.025,0.076,0.039,0.157,0.039,0.242c0,0.414-0.335,0.75-0.75,0.75
			c-0.004,0-0.012,0-0.02,0c-0.115,0-0.23-0.026-0.336-0.08l-4.652-2.334l-3.386,14.726c-0.051,0.222-0.199,0.408-0.404,0.507
			c-0.204,0.099-0.444,0.101-0.648,0.002l-2.517-1.197l-2.354,11.947c-0.043,0.216-0.179,0.402-0.372,0.51
			c-0.192,0.107-0.424,0.125-0.63,0.046l-4.31-1.63l-5.175,7.79c-0.021,0.031-0.045,0.062-0.07,0.09l-11.837,13.009
			c-0.146,0.16-0.309,0.239-0.57,0.245c-0.216-0.005-0.42-0.103-0.56-0.269l-7.946-9.486l-17.183,21.39
			C71.765,158.018,71.549,158.119,71.322,158.119z M56.855,133.999c0.032,0,0.064,0.002,0.097,0.006
			c0.22,0.029,0.416,0.153,0.535,0.34l13.904,21.742l17.102-21.289c0.141-0.175,0.353-0.278,0.577-0.28
			c0.24-0.024,0.438,0.096,0.583,0.269l7.981,9.529l11.221-12.332l5.474-8.24c0.194-0.292,0.563-0.412,0.891-0.286l4.039,1.527
			l2.369-12.023c0.045-0.227,0.192-0.421,0.399-0.524c0.207-0.104,0.452-0.106,0.659-0.007l2.544,1.21l3.391-14.745
			c0.051-0.225,0.203-0.413,0.411-0.511c0.209-0.098,0.45-0.096,0.655,0.009l4.291,2.153l-3.06-31.549l-8.813-9.722
			c-0.146-0.161-0.215-0.377-0.189-0.592l1.189-10.085l-4.031-5.985c-0.116-0.172-0.155-0.384-0.109-0.586l0.653-2.86l-0.665-4.931
			c-0.049-0.359,0.167-0.702,0.512-0.813l5.418-1.761l11.874-18.123l4.272-12.037h-33.936l-4.262,12.387
			c-0.077,0.224-0.255,0.398-0.481,0.471l-13.715,4.375c-0.073,0.023-0.15,0.035-0.228,0.035H51.143
			c-0.095,0-0.188-0.018-0.277-0.053l-11.01-4.375c-0.188-0.075-0.339-0.225-0.416-0.412L34.336,1.501H1.813l4.272,12.037
			l11.88,18.13l7.104,2.453c0.26,0.09,0.45,0.315,0.495,0.588c0.045,0.271-0.063,0.546-0.281,0.715l-4.935,3.814l2.707,2.393
			c0.269,0.237,0.332,0.629,0.153,0.938l-3.486,6.02l0.622,10.136c0.013,0.221-0.071,0.437-0.232,0.59l-8.336,7.923l-2.553,33.321
			l4.318-2.167c0.207-0.104,0.448-0.106,0.656-0.009s0.36,0.286,0.411,0.511l3.391,14.745l2.544-1.21
			c0.207-0.101,0.453-0.099,0.659,0.007c0.207,0.104,0.354,0.298,0.399,0.524l2.369,12.023l4.039-1.527
			c0.327-0.125,0.696-0.005,0.891,0.286l5.463,8.225l11.719,11.645l10.267-9.416C56.487,134.068,56.669,133.999,56.855,133.999z"/>
	</g>
	<g>
		<path fill="#010101" d="M45.694,32.353c-0.183,0-0.365-0.065-0.509-0.199L27.321,15.643L0.399,1.415
			C0.033,1.221-0.106,0.767,0.087,0.401C0.28,0.036,0.731-0.103,1.101,0.088l27.009,14.274c0.058,0.03,0.11,0.068,0.158,0.112
			l17.936,16.577c0.305,0.281,0.323,0.756,0.042,1.06C46.098,32.272,45.896,32.353,45.694,32.353z"/>
	</g>
	<g>
		<path fill="#010101" d="M95.33,31.183c-0.219,0-0.437-0.096-0.585-0.28c-0.259-0.322-0.208-0.795,0.115-1.055l19.167-15.407
			c0.028-0.022,0.059-0.043,0.09-0.062L138.42,0.105c0.356-0.212,0.816-0.092,1.026,0.267c0.21,0.357,0.091,0.816-0.267,1.026
			l-24.256,14.247L95.8,31.018C95.661,31.129,95.495,31.183,95.33,31.183z"/>
	</g>
	<g>
		<path fill="#010101" d="M77.443,57.449H64.812c-0.175,0-0.345-0.062-0.479-0.174L46.07,42.08c-0.154-0.128-0.25-0.313-0.268-0.512
			l-0.855-9.9c-0.011-0.117,0.007-0.234,0.051-0.344l5.448-13.584c0.153-0.385,0.589-0.569,0.976-0.417
			c0.385,0.154,0.571,0.591,0.417,0.976l-5.382,13.418l0.813,9.411l17.813,14.821h12.089l17.771-14.787L94.587,30.64l-6.834-12.256
			c-0.201-0.361-0.071-0.818,0.29-1.021c0.362-0.203,0.818-0.071,1.021,0.29l6.922,12.414c0.058,0.104,0.09,0.221,0.095,0.34
			l0.375,11.07c0.008,0.231-0.092,0.454-0.271,0.602L77.923,57.275C77.788,57.387,77.618,57.449,77.443,57.449z"/>
	</g>
	<g>
		<path fill="#010101" d="M25.271,82.833c-0.066,0-0.132-0.009-0.197-0.026c-0.233-0.063-0.421-0.235-0.506-0.462l-5.081-13.642
			c-0.025-0.069-0.041-0.142-0.046-0.216l-0.595-9.67c-0.025-0.413,0.29-0.77,0.703-0.795c0.408-0.032,0.769,0.29,0.795,0.703
			l0.588,9.559l4.677,12.559l19.613-15.919c0.049-0.04,0.102-0.073,0.159-0.1l19.117-8.807c0.374-0.171,0.82-0.011,0.995,0.368
			c0.173,0.376,0.009,0.821-0.368,0.995l-19.031,8.767L25.743,82.665C25.608,82.775,25.44,82.833,25.271,82.833z"/>
	</g>
	<g>
		<path fill="#010101" d="M46.55,42.253c-0.072,0-0.146-0.011-0.22-0.033l-23.991-7.368c-0.396-0.121-0.619-0.541-0.497-0.937
			c0.121-0.396,0.536-0.62,0.937-0.497l23.991,7.368c0.396,0.121,0.619,0.541,0.497,0.937C47.168,42.046,46.871,42.253,46.55,42.253
			z"/>
	</g>
	<g>
		<polygon fill="#010101" points="44.645,47.895 55.442,55.49 45.359,62.916 36.229,48.928 		"/>
	</g>
	<g>
		<path fill="#010101" d="M45.694,66.255c-0.414,0-0.75-0.336-0.75-0.75v-7.598c0-0.414,0.336-0.75,0.75-0.75s0.75,0.336,0.75,0.75
			v7.598C46.444,65.919,46.108,66.255,45.694,66.255z"/>
	</g>
	<g>
		<path fill="#010101" d="M64.813,57.449c-0.034,0-0.068-0.002-0.104-0.007l-12.545-1.727c-0.41-0.057-0.697-0.436-0.641-0.846
			s0.43-0.697,0.846-0.641l12.545,1.727c0.41,0.057,0.697,0.436,0.641,0.846C65.503,57.176,65.182,57.449,64.813,57.449z"/>
	</g>
	<g>
		<path fill="#010101" d="M39.085,50.887c-0.108,0-0.219-0.023-0.324-0.074L22.233,42.87c-0.373-0.18-0.53-0.627-0.351-1.001
			c0.179-0.373,0.624-0.533,1.001-0.351l16.527,7.943c0.373,0.18,0.53,0.627,0.351,1.001C39.633,50.731,39.364,50.887,39.085,50.887
			z"/>
	</g>
	<g>
		<path fill="#010101" d="M44.645,48.645c-0.07,0-0.143-0.01-0.214-0.031c-0.397-0.118-0.623-0.536-0.505-0.933l1.905-6.392
			c0.117-0.397,0.532-0.626,0.933-0.505c0.397,0.118,0.623,0.536,0.505,0.933l-1.905,6.392
			C45.267,48.435,44.968,48.645,44.645,48.645z"/>
	</g>
	<g>
		<path fill="#010101" d="M20.095,67.643c-0.281,0-0.552-0.159-0.68-0.43c-0.177-0.375-0.016-0.822,0.358-0.999l25.266-11.921
			c0.378-0.178,0.823-0.015,0.999,0.358c0.177,0.375,0.016,0.822-0.358,0.999L20.414,67.572
			C20.311,67.621,20.201,67.643,20.095,67.643z"/>
	</g>
	<g>
		<path fill="#010101" d="M19.594,59.521c-0.35,0-0.663-0.246-0.734-0.603c-0.081-0.406,0.183-0.802,0.588-0.883l25.05-5.008
			c0.403-0.082,0.802,0.182,0.883,0.588s-0.183,0.802-0.588,0.883l-25.05,5.008C19.692,59.516,19.643,59.521,19.594,59.521z"/>
	</g>
	<g>
		<path fill="#010101" d="M42.204,51.923c-0.029,0-0.06-0.002-0.09-0.005L18.87,49.155c-0.411-0.049-0.705-0.422-0.656-0.834
			c0.05-0.411,0.413-0.699,0.834-0.656l23.244,2.764c0.411,0.049,0.705,0.422,0.656,0.834
			C42.902,51.643,42.579,51.923,42.204,51.923z"/>
	</g>
	<g>
		<path fill="#010101" d="M71.128,93.71c-0.277,0-0.532-0.153-0.662-0.398l-5.137-9.67c-0.058-0.108-0.088-0.229-0.088-0.352v-13.9
			c0-0.138,0.038-0.271,0.109-0.39l5.137-8.458c0.136-0.224,0.379-0.36,0.641-0.36l0,0c0.262,0,0.505,0.137,0.641,0.36L76.904,69
			c0.071,0.118,0.109,0.252,0.109,0.39v13.9c0,0.123-0.03,0.243-0.088,0.352l-5.136,9.67C71.66,93.557,71.405,93.71,71.128,93.71z
			 M66.741,83.104l4.387,8.258l4.386-8.258V69.6l-4.386-7.223L66.741,69.6V83.104z"/>
	</g>
	<g>
		<path fill="#010101" d="M65.99,78.619c-0.133,0-0.268-0.035-0.39-0.109L45.304,66.146c-0.354-0.216-0.466-0.677-0.25-1.031
			c0.216-0.353,0.677-0.466,1.031-0.25l20.297,12.363c0.354,0.216,0.466,0.677,0.25,1.031C66.49,78.491,66.243,78.619,65.99,78.619z
			"/>
	</g>
	<g>
		<path fill="#010101" d="M71.322,61.682c-0.414,0-0.75-0.336-0.75-0.75V18.019c0-0.414,0.336-0.75,0.75-0.75s0.75,0.336,0.75,0.75
			v42.913C72.072,61.346,71.736,61.682,71.322,61.682z"/>
	</g>
	<g>
		<path fill="#010101" d="M71.321,38.109c-0.109,0-0.221-0.024-0.326-0.075L47.6,26.712c-0.372-0.18-0.528-0.629-0.348-1.002
			c0.18-0.372,0.629-0.526,1.002-0.348l23.396,11.321c0.372,0.18,0.528,0.629,0.348,1.002
			C71.868,37.954,71.601,38.109,71.321,38.109z"/>
	</g>
	<g>
		<path fill="#010101" d="M71.323,38.109c-0.279,0-0.547-0.156-0.677-0.424c-0.18-0.373-0.023-0.821,0.35-1.002l21.955-10.607
			c0.376-0.179,0.822-0.022,1.002,0.35c0.18,0.373,0.023,0.821-0.35,1.002L71.648,38.035C71.543,38.085,71.433,38.109,71.323,38.109
			z"/>
	</g>
	<g>
		<path fill="#010101" d="M71.322,158.119c-0.414,0-0.75-0.336-0.75-0.75V92.96c0-0.414,0.336-0.75,0.75-0.75s0.75,0.336,0.75,0.75
			v64.409C72.072,157.783,71.736,158.119,71.322,158.119z"/>
	</g>
	<g>
		<path fill="#010101" d="M71.321,104.647c-0.129,0-0.259-0.033-0.378-0.103L46.461,90.209L30.45,95.402
			c-0.378,0.118-0.785-0.07-0.93-0.439l-4.948-12.605c-0.151-0.386,0.039-0.821,0.424-0.973c0.387-0.149,0.821,0.038,0.973,0.424
			l4.69,11.948l15.659-5.078c0.202-0.065,0.425-0.041,0.61,0.066l24.772,14.505c0.357,0.21,0.478,0.669,0.269,1.026
			C71.83,104.514,71.579,104.647,71.321,104.647z"/>
	</g>
	<g>
		<path fill="#010101" d="M46.549,90.142c-0.135,0-0.271-0.036-0.394-0.112c-0.353-0.218-0.461-0.68-0.243-1.032l10.306-16.67
			c0.217-0.353,0.678-0.462,1.032-0.243c0.353,0.218,0.461,0.68,0.243,1.032l-10.306,16.67
			C47.046,90.016,46.801,90.142,46.549,90.142z"/>
	</g>
	<g>
		<path fill="#010101" d="M27.758,15.776c-0.377,0-0.701-0.283-0.744-0.667c-0.046-0.411,0.25-0.782,0.662-0.828l12.374-1.382
			c0.409-0.04,0.782,0.249,0.828,0.662c0.046,0.411-0.25,0.782-0.662,0.828l-12.374,1.382
			C27.813,15.774,27.786,15.776,27.758,15.776z"/>
	</g>
	<g>
		<path fill="#010101" d="M22.559,42.944c-0.177,0-0.354-0.063-0.497-0.188c-0.311-0.274-0.339-0.749-0.064-1.059l5.61-6.336
			c0.102-0.115,0.235-0.195,0.385-0.231l17.525-4.255c0.4-0.1,0.808,0.148,0.905,0.552c0.098,0.402-0.149,0.808-0.552,0.905
			l-17.297,4.199l-5.454,6.16C22.972,42.859,22.766,42.944,22.559,42.944z"/>
	</g>
	<g>
		<path fill="#010101" d="M40.133,50.542c-0.211,0-0.421-0.089-0.569-0.262L27.6,36.346c-0.27-0.313-0.233-0.787,0.081-1.058
			c0.315-0.269,0.789-0.233,1.058,0.081l11.964,13.934c0.27,0.313,0.233,0.787-0.081,1.058
			C40.479,50.482,40.306,50.542,40.133,50.542z"/>
	</g>
	<g>
		<path fill="#010101" d="M116.984,82.833c-0.17,0-0.338-0.058-0.473-0.168l-20.35-16.518L77.13,57.38
			c-0.377-0.174-0.541-0.619-0.368-0.995c0.175-0.377,0.622-0.537,0.995-0.368l19.118,8.807c0.058,0.026,0.11,0.06,0.159,0.1
			l19.612,15.919l4.678-12.559l0.588-9.559c0.026-0.413,0.387-0.737,0.795-0.703c0.414,0.025,0.729,0.382,0.703,0.795l-0.595,9.67
			c-0.005,0.074-0.021,0.146-0.046,0.216l-5.082,13.642c-0.085,0.227-0.272,0.398-0.506,0.462
			C117.116,82.824,117.05,82.833,116.984,82.833z"/>
	</g>
	<g>
		<path fill="#010101" d="M95.705,42.253c-0.321,0-0.618-0.207-0.717-0.53c-0.122-0.396,0.101-0.815,0.497-0.937l23.991-7.368
			c0.4-0.123,0.815,0.102,0.937,0.497c0.122,0.396-0.101,0.815-0.497,0.937L95.925,42.22C95.852,42.243,95.777,42.253,95.705,42.253
			z"/>
	</g>
	<g>
		<polygon fill="#010101" points="97.611,47.895 86.813,55.49 96.658,62.916 106.027,48.928 		"/>
	</g>
	<g>
		<path fill="#010101" d="M96.562,66.255c-0.414,0-0.75-0.336-0.75-0.75v-7.598c0-0.414,0.336-0.75,0.75-0.75s0.75,0.336,0.75,0.75
			v7.598C97.312,65.919,96.976,66.255,96.562,66.255z"/>
	</g>
	<g>
		<path fill="#010101" d="M77.442,57.449c-0.369,0-0.69-0.272-0.742-0.647c-0.057-0.41,0.23-0.789,0.641-0.846l12.546-1.727
			c0.412-0.056,0.789,0.23,0.846,0.641s-0.23,0.789-0.641,0.846l-12.546,1.727C77.511,57.447,77.477,57.449,77.442,57.449z"/>
	</g>
	<g>
		<path fill="#010101" d="M103.17,50.887c-0.279,0-0.548-0.156-0.677-0.425c-0.18-0.374-0.022-0.821,0.351-1.001l16.527-7.943
			c0.378-0.183,0.822-0.022,1.001,0.351c0.18,0.374,0.022,0.821-0.351,1.001l-16.527,7.943
			C103.389,50.864,103.278,50.887,103.17,50.887z"/>
	</g>
	<g>
		<path fill="#010101" d="M97.611,48.645c-0.323,0-0.622-0.21-0.719-0.536l-1.906-6.392c-0.118-0.396,0.107-0.814,0.505-0.933
			c0.398-0.12,0.814,0.107,0.933,0.505l1.906,6.392c0.118,0.396-0.107,0.814-0.505,0.933C97.754,48.635,97.682,48.645,97.611,48.645
			z"/>
	</g>
	<g>
		<path fill="#010101" d="M129.352,99.812c-0.31,0-0.6-0.193-0.708-0.502l-8.983-25.595L95.294,57.757
			c-0.347-0.227-0.443-0.691-0.216-1.038c0.226-0.346,0.689-0.443,1.038-0.216L120.694,72.6c0.138,0.09,0.242,0.223,0.297,0.379
			l9.068,25.835c0.137,0.391-0.068,0.818-0.46,0.956C129.518,99.798,129.434,99.812,129.352,99.812z"/>
	</g>
	<g>
		<path fill="#010101" d="M122.16,67.643c-0.106,0-0.216-0.022-0.319-0.071L96.576,55.651c-0.374-0.177-0.535-0.624-0.358-0.999
			c0.177-0.373,0.622-0.536,0.999-0.358l25.265,11.921c0.374,0.177,0.535,0.624,0.358,0.999
			C122.712,67.484,122.441,67.643,122.16,67.643z"/>
	</g>
	<g>
		<path fill="#010101" d="M122.662,59.521c-0.049,0-0.099-0.005-0.148-0.015l-25.05-5.008c-0.405-0.081-0.669-0.477-0.588-0.883
			s0.476-0.67,0.883-0.588l25.05,5.008c0.405,0.081,0.669,0.477,0.588,0.883C123.325,59.275,123.012,59.521,122.662,59.521z"/>
	</g>
	<g>
		<path fill="#010101" d="M100.051,51.923c-0.376,0-0.7-0.281-0.744-0.664c-0.048-0.411,0.247-0.783,0.659-0.831l23.831-2.764
			c0.408-0.036,0.783,0.247,0.831,0.659c0.048,0.411-0.247,0.783-0.659,0.831l-23.831,2.764
			C100.108,51.921,100.08,51.923,100.051,51.923z"/>
	</g>
	<g>
		<path fill="#010101" d="M76.522,78.619c-0.252,0-0.497-0.126-0.64-0.356c-0.217-0.353-0.107-0.814,0.245-1.032l20.04-12.363
			c0.352-0.217,0.813-0.108,1.032,0.245c0.217,0.353,0.107,0.814-0.245,1.032l-20.04,12.363
			C76.793,78.583,76.656,78.619,76.522,78.619z"/>
	</g>
	<g>
		<path fill="#010101" d="M70.934,104.647c-0.258,0-0.509-0.133-0.648-0.371c-0.209-0.357-0.089-0.816,0.269-1.026l24.772-14.505
			c0.186-0.107,0.409-0.132,0.61-0.066l15.659,5.078l4.69-11.948c0.152-0.386,0.586-0.574,0.973-0.424
			c0.385,0.151,0.575,0.587,0.424,0.973l-4.948,12.605c-0.145,0.369-0.553,0.559-0.93,0.439l-16.011-5.192l-24.482,14.335
			C71.192,104.614,71.063,104.647,70.934,104.647z"/>
	</g>
	<g>
		<path fill="#010101" d="M95.706,90.142c-0.255,0-0.504-0.13-0.645-0.364l-9.983-16.67c-0.213-0.355-0.097-0.816,0.258-1.029
			c0.356-0.213,0.817-0.097,1.029,0.258l9.983,16.67c0.213,0.355,0.097,0.816-0.258,1.029C95.97,90.108,95.837,90.142,95.706,90.142
			z"/>
	</g>
	<g>
		<path fill="#010101" d="M114.498,15.776c-0.028,0-0.056-0.002-0.084-0.005l-12.374-1.382c-0.412-0.046-0.708-0.417-0.662-0.828
			c0.047-0.413,0.424-0.702,0.828-0.662l12.374,1.382c0.412,0.046,0.708,0.417,0.662,0.828
			C115.199,15.493,114.875,15.776,114.498,15.776z"/>
	</g>
	<g>
		<path fill="#010101" d="M119.696,42.944c-0.207,0-0.413-0.085-0.562-0.253l-5.466-6.173l-18.547-5.364
			c-0.398-0.115-0.628-0.531-0.513-0.929c0.114-0.398,0.527-0.625,0.929-0.513l18.756,5.425c0.137,0.04,0.26,0.117,0.354,0.224
			l5.61,6.336c0.274,0.31,0.246,0.784-0.064,1.059C120.051,42.881,119.873,42.944,119.696,42.944z"/>
	</g>
	<g>
		<path fill="#010101" d="M102.123,50.542c-0.173,0-0.347-0.06-0.488-0.181c-0.314-0.271-0.351-0.743-0.081-1.058l11.963-13.934
			c0.271-0.314,0.744-0.35,1.058-0.081c0.314,0.271,0.351,0.743,0.081,1.058L102.692,50.28
			C102.544,50.453,102.334,50.542,102.123,50.542z"/>
	</g>
	<g>
		<path fill="#010101" d="M71.322,158.119c-0.31,0-0.6-0.193-0.708-0.502L50.526,100.1l-13.032,7.392
			c-0.274,0.156-0.618,0.123-0.859-0.084l-6.457-5.55l-7.521,5.412l-1.054,5.967c-0.071,0.407-0.449,0.683-0.869,0.607
			c-0.407-0.071-0.68-0.461-0.607-0.869l1.106-6.267c0.034-0.192,0.142-0.363,0.3-0.478l8.247-5.936
			c0.282-0.202,0.664-0.188,0.928,0.04l6.505,5.591l13.355-7.574c0.193-0.109,0.427-0.128,0.634-0.05
			c0.208,0.078,0.371,0.245,0.444,0.455l20.384,58.366c0.137,0.391-0.069,0.818-0.461,0.955
			C71.487,158.105,71.404,158.119,71.322,158.119z"/>
	</g>
	<g>
		<path fill="#010101" d="M71.636,158.119c-0.082,0-0.165-0.014-0.247-0.041c-0.392-0.137-0.598-0.564-0.461-0.955l20.384-58.366
			c0.072-0.208,0.232-0.373,0.438-0.452c0.203-0.08,0.435-0.064,0.627,0.039l14.057,7.601l5.786-5.581
			c0.261-0.251,0.665-0.278,0.959-0.068l8.247,5.936c0.149,0.107,0.254,0.267,0.294,0.447l1.378,6.267
			c0.089,0.404-0.167,0.805-0.571,0.894c-0.405,0.083-0.805-0.166-0.894-0.571l-1.316-5.986l-7.506-5.402l-5.73,5.527
			c-0.236,0.227-0.591,0.274-0.877,0.12l-13.765-7.443l-20.094,57.535C72.235,157.926,71.945,158.119,71.636,158.119z"/>
	</g>
	<g>
		<path fill="#010101" d="M46.061,145.399c-0.34,0-0.647-0.232-0.729-0.577l-8.938-37.81c-0.096-0.403,0.154-0.808,0.557-0.902
			c0.403-0.096,0.808,0.153,0.902,0.557l8.938,37.81c0.096,0.403-0.154,0.808-0.557,0.902
			C46.176,145.392,46.118,145.399,46.061,145.399z"/>
	</g>
	<g>
		<path fill="#010101" d="M56.856,135.499c-0.253,0-0.499-0.127-0.641-0.358l-17.77-29.022c-0.216-0.354-0.105-0.815,0.248-1.031
			c0.354-0.219,0.815-0.105,1.031,0.248l17.77,29.022c0.216,0.354,0.105,0.814-0.248,1.031
			C57.125,135.463,56.989,135.499,56.856,135.499z"/>
	</g>
	<g>
		<path fill="#010101" d="M97.611,146.205c-0.073,0-0.148-0.011-0.224-0.034c-0.395-0.123-0.615-0.544-0.492-0.939l13.351-42.837
			c0.123-0.394,0.536-0.616,0.939-0.492c0.395,0.123,0.615,0.544,0.492,0.939l-13.351,42.837
			C98.228,145.999,97.931,146.205,97.611,146.205z"/>
	</g>
	<g>
		<path fill="#010101" d="M89.077,136.017c-0.134,0-0.27-0.036-0.393-0.111c-0.353-0.217-0.462-0.679-0.245-1.032l17.48-28.401
			c0.217-0.351,0.677-0.462,1.032-0.245c0.353,0.217,0.462,0.679,0.245,1.032l-17.48,28.401
			C89.575,135.89,89.329,136.017,89.077,136.017z"/>
	</g>
	<g>
		<path fill="#010101" d="M13.878,99.812c-0.074,0-0.149-0.011-0.225-0.034c-0.395-0.124-0.615-0.545-0.491-0.94l8.094-25.835
			c0.052-0.165,0.16-0.308,0.305-0.402l24.578-16.097c0.348-0.228,0.812-0.13,1.038,0.216c0.228,0.347,0.131,0.812-0.216,1.038
			l-24.354,15.95l-8.014,25.579C14.493,99.607,14.197,99.812,13.878,99.812z"/>
	</g>
	<g>
		<path fill="#010101" d="M20.19,69.191c-0.042,0-0.084-0.003-0.126-0.011l-9.14-1.548c-0.408-0.069-0.684-0.456-0.614-0.864
			c0.069-0.409,0.466-0.689,0.864-0.614l9.14,1.548c0.408,0.069,0.684,0.456,0.614,0.864C20.867,68.932,20.55,69.191,20.19,69.191z"
			/>
	</g>
	<g>
		<path fill="#010101" d="M131.642,69.427c-0.006,0-0.012,0-0.019,0l-9.575-0.236c-0.414-0.011-0.741-0.354-0.731-0.769
			c0.012-0.414,0.326-0.714,0.769-0.731l9.575,0.236c0.414,0.011,0.741,0.354,0.731,0.769
			C132.381,69.104,132.048,69.427,131.642,69.427z"/>
	</g>
	<g>
		<path fill="#010101" d="M28.276,124.908c-0.021,0-0.042-0.001-0.063-0.003c-0.413-0.034-0.72-0.396-0.685-0.81l1.943-23.254
			c0.034-0.413,0.408-0.72,0.81-0.685c0.413,0.034,0.72,0.396,0.685,0.81l-1.943,23.254
			C28.99,124.612,28.662,124.908,28.276,124.908z"/>
	</g>
	<g>
		<path fill="#010101" d="M114.953,124.908c-0.382,0-0.709-0.291-0.746-0.679l-2.215-23.254c-0.039-0.412,0.264-0.778,0.676-0.818
			c0.423-0.03,0.779,0.265,0.818,0.676l2.215,23.254c0.039,0.412-0.264,0.778-0.676,0.818
			C115.001,124.907,114.977,124.908,114.953,124.908z"/>
	</g>
	<g>
		<path fill="#010101" d="M71.322,38.109c-0.326,0-0.626-0.214-0.721-0.542c-0.114-0.398,0.115-0.813,0.513-0.929l24.008-6.926
			c0.399-0.114,0.813,0.115,0.929,0.513c0.114,0.398-0.115,0.813-0.513,0.929L71.53,38.08
			C71.461,38.099,71.391,38.109,71.322,38.109z"/>
	</g>
	<g>
		<path fill="#010101" d="M71.323,38.109c-0.055,0-0.11-0.006-0.165-0.019L45.53,32.334c-0.404-0.091-0.658-0.491-0.567-0.896
			s0.499-0.661,0.896-0.567l25.628,5.756c0.404,0.091,0.658,0.491,0.567,0.896C71.976,37.872,71.666,38.109,71.323,38.109z"/>
	</g>
	<g>
		<path fill="#010101" d="M47.926,26.788c-0.121,0-0.244-0.029-0.358-0.092L27.399,15.684c-0.363-0.198-0.497-0.654-0.299-1.018
			c0.197-0.362,0.652-0.498,1.018-0.299l20.168,11.012c0.363,0.198,0.497,0.654,0.299,1.018
			C48.449,26.646,48.191,26.788,47.926,26.788z"/>
	</g>
	<g>
		<path fill="#010101" d="M93.278,27.501c-0.265,0-0.521-0.14-0.657-0.388c-0.2-0.362-0.069-0.818,0.294-1.019l21.22-11.726
			c0.361-0.201,0.818-0.068,1.019,0.294s0.069,0.818-0.294,1.019L93.64,27.408C93.525,27.471,93.4,27.501,93.278,27.501z"/>
	</g>
	<g>
		<path fill="#010101" d="M71.164,57.449c-0.19,0-0.38-0.072-0.526-0.216l-25.47-25.096c-0.295-0.291-0.299-0.766-0.008-1.061
			c0.291-0.297,0.766-0.298,1.061-0.008l25.47,25.096c0.295,0.291,0.299,0.766,0.008,1.061
			C71.552,57.375,71.357,57.449,71.164,57.449z"/>
	</g>
	<g>
		<path fill="#010101" d="M71.164,57.449c-0.182,0-0.363-0.065-0.508-0.198c-0.305-0.28-0.324-0.755-0.044-1.06l24.166-26.266
			c0.28-0.306,0.755-0.323,1.06-0.044c0.305,0.28,0.324,0.755,0.044,1.06L71.716,57.207C71.568,57.368,71.366,57.449,71.164,57.449z
			"/>
	</g>
</g>
</svg>
